<?xml version="1.0" standalone="no"?>
<!DOCTYPE svg PUBLIC "-//W3C//DTD SVG 20010904//EN"
 "http://www.w3.org/TR/2001/REC-SVG-20010904/DTD/svg10.dtd">
<svg version="1.0" xmlns="http://www.w3.org/2000/svg"
 width="160.000000pt" height="160.000000pt" viewBox="0 0 160.000000 160.000000"
 preserveAspectRatio="xMidYMid meet">
<metadata>
Created by potrace 1.14, written by Peter Selinger 2001-2017
</metadata>
<g transform="translate(0.000000,160.000000) scale(0.100000,-0.100000)"
fill="#000000" stroke="none">
<path d="M390 1535 c-176 -31 -270 -70 -270 -110 0 -13 6 -28 14 -32 40 -24
164 -286 236 -500 l48 -141 -65 -24 c-120 -42 -189 -131 -200 -257 -9 -102 64
-273 151 -349 123 -107 282 -120 448 -36 26 13 63 37 81 54 l34 30 73 -38 c68
-35 78 -37 164 -37 113 1 179 28 265 110 136 130 174 297 103 450 -81 172
-270 259 -447 205 -38 -12 -77 -22 -86 -23 -9 -1 -90 68 -179 153 l-163 155
119 6 c65 3 151 14 189 24 73 18 208 75 218 92 9 15 -41 81 -99 131 -139 123
-397 179 -634 137z m-37 -326 c37 -19 95 -39 158 -53 17 -3 74 -59 164 -158
76 -84 150 -165 164 -181 l25 -27 -20 -21 -21 -20 -78 26 c-84 29 -137 29
-230 1 l-42 -13 -63 156 c-34 86 -85 200 -111 254 -27 54 -49 101 -49 104 0 2
14 -7 31 -22 18 -14 50 -35 72 -46z m367 4 c0 -7 -39 17 -46 28 -3 6 5 3 20
-6 14 -10 26 -19 26 -22z m-185 -537 c35 -15 57 -59 39 -75 -5 -5 -64 -11
-131 -15 -98 -5 -123 -3 -123 7 0 23 47 59 102 78 65 22 70 23 113 5z m615
-13 c0 -15 -39 -69 -85 -117 -36 -39 -48 -47 -58 -37 -9 10 -6 17 15 32 14 11
38 39 52 64 24 40 49 64 69 65 4 0 7 -3 7 -7z"/>
</g>
</svg>
